<svg width="164" height="80" viewBox="0 0 164 80" fill="none" xmlns="http://www.w3.org/2000/svg">
<g id="logo">
<g id="logo_2">
<g id="BODY TIME">
<path d="M3.07758 23.2752H10.0876C11.2383 23.2752 12.1322 23.346 12.7695 23.4876C13.4245 23.6292 14.0086 23.9036 14.522 24.3107C15.7966 25.2666 16.4338 26.5501 16.4338 28.1609C16.4338 29.9843 15.6018 31.2765 13.9378 32.0377C14.9469 32.3209 15.7523 32.8963 16.3542 33.7637C16.956 34.6311 17.257 35.6489 17.257 36.8173C17.257 38.7114 16.5577 40.1895 15.1593 41.2517C14.6636 41.6234 14.0617 41.8889 13.3537 42.0483C12.6456 42.2076 11.6189 42.2872 10.2735 42.2872H3.07758V23.2752ZM5.73289 25.6649V31.188H10.2204C11.3887 31.188 12.2473 30.9756 12.796 30.5507C13.3625 30.1082 13.6457 29.4443 13.6457 28.5592C13.6457 27.5325 13.3625 26.7979 12.796 26.3553C12.2473 25.8951 11.3091 25.6649 9.98141 25.6649H5.73289ZM5.73289 33.5778V39.8975H10.0345C11.3799 39.8975 12.4509 39.685 13.2474 39.2602C14.0617 38.8176 14.4689 37.9856 14.4689 36.7642C14.4689 34.6399 13.0704 33.5778 10.2735 33.5778H5.73289Z" fill="#363431"/>
<path d="M20.4382 32.9671C20.4382 30.9313 20.8099 29.1523 21.5534 27.6299C22.3146 26.1075 23.4033 24.9392 24.8195 24.1249C26.2356 23.3106 27.8731 22.9034 29.7318 22.9034C31.1303 22.9034 32.3871 23.1335 33.5023 23.5938C34.6353 24.0363 35.6001 24.6825 36.3966 25.5322C37.1932 26.3819 37.804 27.3909 38.2288 28.5592C38.6537 29.7276 38.8661 31.0818 38.8661 32.6219C38.8661 34.4806 38.5032 36.18 37.7774 37.7201C37.0693 39.2425 36.0072 40.4462 34.591 41.3313C33.1926 42.1987 31.5197 42.6324 29.5725 42.6324C27.6783 42.6324 26.0498 42.243 24.6867 41.4641C23.3236 40.6852 22.2703 39.5611 21.5269 38.0918C20.8011 36.6049 20.4382 34.8966 20.4382 32.9671ZM23.2263 32.914C23.2263 35.1444 23.8016 36.9235 24.9522 38.2512C26.1029 39.5788 27.6783 40.2426 29.6787 40.2426C31.6967 40.2426 33.2722 39.57 34.4052 38.2246C35.5558 36.8615 36.1311 34.994 36.1311 32.6219C36.1311 31.8784 36.0692 31.188 35.9452 30.5507C35.8213 29.8958 35.6266 29.285 35.3611 28.7186C34.83 27.6033 34.0688 26.7536 33.0775 26.1695C32.1039 25.5853 30.9709 25.2932 29.6787 25.2932C27.6429 25.2932 26.0586 25.9747 24.9257 27.3378C23.7927 28.7009 23.2263 30.5596 23.2263 32.914Z" fill="#363431"/>
<path d="M43.5152 23.2752H49.9411C51.5342 23.2752 52.738 23.3637 53.5523 23.5407C54.3843 23.7177 55.1455 24.0895 55.8359 24.6559C56.8449 25.4348 57.6415 26.5146 58.2257 27.8954C58.8098 29.2762 59.1019 30.8517 59.1019 32.6219C59.1019 34.0912 58.8806 35.4808 58.4381 36.7907C57.9955 38.1007 57.3759 39.1894 56.5794 40.0568C55.8005 40.9065 54.9242 41.4906 53.9506 41.8093C52.9947 42.1279 51.7201 42.2872 50.1269 42.2872H43.5152V23.2752ZM46.1705 25.6649V39.8975H49.9676C51.7732 39.8975 53.0655 39.6231 53.8444 39.0743C55.5261 37.8529 56.3669 35.6843 56.3669 32.5688C56.3669 31.1349 56.1634 29.9135 55.7562 28.9044C55.3491 27.8777 54.756 27.0988 53.9771 26.5678C53.0743 25.9659 51.7113 25.6649 49.8879 25.6649H46.1705Z" fill="#363431"/>
<path d="M61.0874 23.2752H64.2207L69.8765 32.2767L75.3464 23.2752H78.4797L71.2041 34.7727V42.2872H68.5223V34.7727L61.0874 23.2752Z" fill="#363431"/>
<path d="M88.7232 23.2752H103.965V25.6649H97.6717V42.2872H94.9632V25.6649H88.7232V23.2752Z" fill="#363431"/>
<path d="M107.872 23.2752H110.528V42.2872H107.872V23.2752Z" fill="#363431"/>
<path d="M116.448 23.2752H120.219L125.052 39.154L129.858 23.2752H133.602V42.2872H130.92V27.0457L126.22 42.2872H123.75L119.104 26.9926V42.2872H116.448V23.2752Z" fill="#363431"/>
<path d="M139.571 23.2752H153.22V25.6649H142.227V31.2411H152.397V33.6309H142.227V39.8975H153.352V42.2872H139.571V23.2752Z" fill="#363431"/>
</g>
<g id="easy shape">
<path d="M3.03448 60.0513H8.15261V60.9475H4.03023V63.0385H7.84393V63.9347H4.03023V66.2847H8.2024V67.1808H3.03448V60.0513Z" fill="#363431"/>
<path d="M21.4936 60.0513H22.5392L25.0883 67.1808H24.0029L23.2959 65.0599H20.5576L19.8108 67.1808H18.7454L21.4936 60.0513ZM21.9716 61.1367L20.8862 64.2533H23.0171L21.9716 61.1367Z" fill="#363431"/>
<path d="M35.5516 64.801H36.5971C36.5971 65.1528 36.6337 65.4217 36.7067 65.6076C36.7531 65.7735 36.8892 65.9328 37.1149 66.0855C37.4668 66.3046 37.9182 66.4141 38.4692 66.4141C38.8011 66.4141 39.1031 66.3676 39.3753 66.2747C39.6474 66.1818 39.8499 66.049 39.9827 65.8764C40.1221 65.7038 40.1918 65.508 40.1918 65.2889C40.1918 64.9304 39.903 64.645 39.3255 64.4326L37.1647 63.626C36.2752 63.3074 35.8304 62.7564 35.8304 61.9731C35.8304 61.6279 35.9001 61.3292 36.0395 61.0769C36.1789 60.818 36.3814 60.5956 36.6469 60.4098C36.866 60.2571 37.1382 60.131 37.4634 60.0314C37.7622 59.9517 38.0675 59.9119 38.3795 59.9119C39.435 59.9119 40.1918 60.2339 40.6498 60.8778C40.756 61.0304 40.8357 61.213 40.8888 61.4254C40.9486 61.6379 40.9784 61.9001 40.9784 62.2121H39.9329C39.9329 61.847 39.8798 61.5748 39.7736 61.3956C39.6674 61.2362 39.4815 61.1002 39.216 60.9873C38.9504 60.8678 38.665 60.8081 38.3596 60.8081C37.9082 60.8081 37.5431 60.9143 37.2643 61.1267C36.9921 61.3325 36.856 61.5847 36.856 61.8835C36.856 62.0959 36.9091 62.2619 37.0154 62.3813C37.1216 62.4942 37.3174 62.6037 37.6029 62.7099L39.8831 63.5563C40.7859 63.8882 41.2373 64.4293 41.2373 65.1794C41.2373 65.5113 41.151 65.8266 40.9784 66.1253C40.8125 66.4241 40.5801 66.673 40.2814 66.8722C39.8632 67.1642 39.2458 67.3103 38.4293 67.3103C37.5 67.3103 36.7863 67.1144 36.2885 66.7228C35.7972 66.3311 35.5516 65.7702 35.5516 65.04V64.801Z" fill="#363431"/>
<path d="M51.611 60.0513H52.786L54.9069 63.4269L56.9582 60.0513H58.1332L55.4048 64.3629V67.1808H54.3991V64.3629L51.611 60.0513Z" fill="#363431"/>
<path d="M81.1824 64.801H82.2279C82.2279 65.1528 82.2644 65.4217 82.3375 65.6076C82.3839 65.7735 82.52 65.9328 82.7457 66.0855C83.0975 66.3046 83.549 66.4141 84.0999 66.4141C84.4318 66.4141 84.7339 66.3676 85.0061 66.2747C85.2782 66.1818 85.4807 66.049 85.6135 65.8764C85.7529 65.7038 85.8226 65.508 85.8226 65.2889C85.8226 64.9304 85.5338 64.645 84.9563 64.4326L82.7955 63.626C81.906 63.3074 81.4612 62.7564 81.4612 61.9731C81.4612 61.6279 81.5309 61.3292 81.6703 61.0769C81.8097 60.818 82.0122 60.5956 82.2777 60.4098C82.4968 60.2571 82.769 60.131 83.0942 60.0314C83.393 59.9517 83.6983 59.9119 84.0103 59.9119C85.0658 59.9119 85.8226 60.2339 86.2806 60.8778C86.3868 61.0304 86.4665 61.213 86.5196 61.4254C86.5793 61.6379 86.6092 61.9001 86.6092 62.2121H85.5637C85.5637 61.847 85.5106 61.5748 85.4044 61.3956C85.2981 61.2362 85.1123 61.1002 84.8467 60.9873C84.5812 60.8678 84.2958 60.8081 83.9904 60.8081C83.539 60.8081 83.1739 60.9143 82.8951 61.1267C82.6229 61.3325 82.4868 61.5847 82.4868 61.8835C82.4868 62.0959 82.5399 62.2619 82.6461 62.3813C82.7524 62.4942 82.9482 62.6037 83.2336 62.7099L85.5139 63.5563C86.4167 63.8882 86.8681 64.4293 86.8681 65.1794C86.8681 65.5113 86.7818 65.8266 86.6092 66.1253C86.4433 66.4241 86.2109 66.673 85.9122 66.8722C85.494 67.1642 84.8766 67.3103 84.0601 67.3103C83.1307 67.3103 82.4171 67.1144 81.9193 66.7228C81.428 66.3311 81.1824 65.7702 81.1824 65.04V64.801Z" fill="#363431"/>
<path d="M98.0982 60.0513H99.0939V62.9887H102.46V60.0513H103.455V67.1808H102.46V63.8849H99.0939V67.1808H98.0982V60.0513Z" fill="#363431"/>
<path d="M116.985 60.0513H118.031L120.58 67.1808H119.494L118.787 65.0599H116.049L115.302 67.1808H114.237L116.985 60.0513ZM117.463 61.1367L116.378 64.2533H118.509L117.463 61.1367Z" fill="#363431"/>
<path d="M131.481 60.0513H134.22C134.684 60.0513 135.059 60.0779 135.345 60.131C135.604 60.1907 135.826 60.2936 136.012 60.4396C136.536 60.818 136.799 61.3657 136.799 62.0826C136.799 62.5473 136.689 62.9556 136.47 63.3074C136.258 63.6526 135.952 63.8982 135.554 64.0442C135.295 64.1438 134.897 64.1936 134.359 64.1936H132.477V67.1808H131.481V60.0513ZM132.477 63.2974H134.03C134.588 63.2974 135.013 63.2244 135.305 63.0784C135.604 62.9257 135.753 62.607 135.753 62.1224C135.753 61.6777 135.617 61.3723 135.345 61.2064C135.073 61.0338 134.691 60.9475 134.2 60.9475H132.477V63.2974Z" fill="#363431"/>
<path d="M147.959 60.0513H153.077V60.9475H148.955V63.0385H152.768V63.9347H148.955V66.2847H153.127V67.1808H147.959V60.0513Z" fill="#363431"/>
</g>
<path id="Line 2" d="M0 51.8298H156" stroke="#363431"/>
<path id="Line 3" d="M0 12H156" stroke="#363431"/>
</g>
</g>
</svg>
